<svg width="302" height="102" viewBox="0 0 302 102" fill="none" xmlns="http://www.w3.org/2000/svg">
<path d="M78.8298 99.2429H24.6084V74.6412H54.2314L78.8298 99.2429Z" fill="#1F2A3D"/>
<path d="M87.5623 1.67035L62.8654 26.3717H24.6084V1.67035H87.5623Z" fill="#1F2A3E"/>
<path d="M24.6084 74.6412V99.2429L0.0100708 74.6412H24.6084Z" fill="#252E45"/>
<path d="M24.6084 1.67035V26.3717H0V26.2788L24.6084 1.67035Z" fill="#29354D"/>
<path d="M24.6084 26.3717H0V74.6423H24.6084V26.3717Z" fill="#295774"/>
<path d="M85.6451 79.3848H63.9987L60.0602 75.4452V53.7999L85.6451 79.3848Z" fill="#D49A29"/>
<path d="M85.2599 28.5912L72.9126 40.9408L67.6549 46.2029L60.0602 53.7943V32.1546L63.6235 28.5912H85.2599Z" fill="#B07E2C"/>
<path d="M60.0602 53.7943L60.0568 53.7977L60.0602 53.801H38.4138L60.0602 32.1546V53.7943Z" fill="#A8792B"/>
<path d="M60.0602 53.7943V53.801L60.0568 53.7977L60.0602 53.7943Z" fill="#E22891"/>
<path d="M60.0602 53.801V75.4463L38.4138 53.801H60.0602Z" fill="#EAA821"/>
<path d="M85.6451 79.3848V99.4769H84.0908L63.9987 79.3848H85.6451Z" fill="#AA7A2B"/>
<path d="M121.723 16.5664H135.57V21.9237H121.723V16.5664ZM122.218 32.4323H115.542V3.58527H137.342V8.94257H122.218V32.4323Z" fill="#1F2A3E"/>
<path d="M154.364 32.4323V28.1052L153.951 27.1574V19.4099C153.951 18.0362 153.526 16.9648 152.674 16.1955C151.85 15.4263 150.572 15.0416 148.841 15.0416C147.66 15.0416 146.492 15.234 145.339 15.6186C144.212 15.9757 143.251 16.4703 142.454 17.1021L140.146 12.6103C141.355 11.7586 142.811 11.0992 144.514 10.6322C146.218 10.1651 147.949 9.93161 149.707 9.93161C153.086 9.93161 155.71 10.7283 157.578 12.3218C159.446 13.9152 160.38 16.4016 160.38 19.7808V32.4323H154.364ZM147.605 32.7619C145.874 32.7619 144.391 32.4735 143.154 31.8965C141.918 31.2921 140.97 30.4817 140.311 29.4651C139.652 28.4486 139.322 27.3085 139.322 26.0447C139.322 24.726 139.638 23.5721 140.27 22.5831C140.929 21.594 141.959 20.8248 143.361 20.2753C144.762 19.6984 146.589 19.4099 148.841 19.4099H154.734V23.16H149.542C148.031 23.16 146.987 23.4073 146.41 23.9018C145.861 24.3963 145.586 25.0145 145.586 25.7562C145.586 26.5804 145.902 27.2398 146.534 27.7343C147.193 28.2014 148.086 28.4349 149.212 28.4349C150.284 28.4349 151.245 28.1876 152.097 27.6931C152.949 27.1711 153.567 26.4156 153.951 25.4266L154.941 28.3937C154.473 29.8223 153.622 30.9075 152.386 31.6493C151.149 32.3911 149.556 32.7619 147.605 32.7619Z" fill="#1F2A3E"/>
<path d="M177.074 32.7619C174.684 32.7619 172.555 32.2812 170.687 31.3196C168.818 30.3306 167.349 28.9706 166.277 27.2398C165.233 25.509 164.711 23.5446 164.711 21.3468C164.711 19.1214 165.233 17.1571 166.277 15.4537C167.349 13.7229 168.818 12.3767 170.687 11.4152C172.555 10.4261 174.684 9.93161 177.074 9.93161C179.409 9.93161 181.442 10.4261 183.173 11.4152C184.904 12.3767 186.182 13.7641 187.006 15.5774L182.019 18.256C181.442 17.212 180.714 16.4428 179.835 15.9483C178.984 15.4537 178.049 15.2065 177.033 15.2065C175.934 15.2065 174.945 15.4537 174.066 15.9483C173.187 16.4428 172.486 17.1434 171.964 18.05C171.47 18.9566 171.222 20.0555 171.222 21.3468C171.222 22.638 171.47 23.737 171.964 24.6436C172.486 25.5502 173.187 26.2508 174.066 26.7453C174.945 27.2398 175.934 27.4871 177.033 27.4871C178.049 27.4871 178.984 27.2535 179.835 26.7865C180.714 26.292 181.442 25.509 182.019 24.4375L187.006 27.1574C186.182 28.9432 184.904 30.3306 183.173 31.3196C181.442 32.2812 179.409 32.7619 177.074 32.7619Z" fill="#1F2A3E"/>
<path d="M190.587 32.4323V10.2613H197.015V32.4323H190.587ZM193.801 7.17054C192.62 7.17054 191.658 6.82712 190.916 6.14029C190.174 5.45346 189.804 4.60178 189.804 3.58527C189.804 2.56876 190.174 1.71708 190.916 1.03025C191.658 0.343417 192.62 0 193.801 0C194.982 0 195.944 0.329681 196.686 0.989042C197.427 1.62093 197.798 2.44513 197.798 3.46164C197.798 4.5331 197.427 5.42598 196.686 6.14029C195.971 6.82712 195.01 7.17054 193.801 7.17054Z" fill="#1F2A3E"/>
<path d="M202.982 32.4323V1.85445H209.41V32.4323H202.982Z" fill="#1F2A3E"/>
<path d="M215.377 32.4323V10.2613H221.806V32.4323H215.377ZM218.591 7.17054C217.41 7.17054 216.448 6.82712 215.707 6.14029C214.965 5.45346 214.594 4.60178 214.594 3.58527C214.594 2.56876 214.965 1.71708 215.707 1.03025C216.448 0.343417 217.41 0 218.591 0C219.773 0 220.734 0.329681 221.476 0.989042C222.218 1.62093 222.589 2.44513 222.589 3.46164C222.589 4.5331 222.218 5.42598 221.476 6.14029C220.762 6.82712 219.8 7.17054 218.591 7.17054Z" fill="#1F2A3E"/>
<path d="M236.838 32.7619C234.228 32.7619 232.195 32.1026 230.739 30.7839C229.283 29.4377 228.555 27.4459 228.555 24.8084V5.3573H234.984V24.726C234.984 25.6601 235.231 26.3881 235.726 26.9101C236.22 27.4046 236.893 27.6519 237.745 27.6519C238.761 27.6519 239.627 27.3772 240.341 26.8277L242.072 31.3608C241.413 31.8279 240.616 32.185 239.682 32.4323C238.775 32.6521 237.827 32.7619 236.838 32.7619ZM225.135 15.701V10.7558H240.506V15.701H225.135Z" fill="#1F2A3E"/>
<path d="M245.681 32.4323V10.2613H252.109V32.4323H245.681ZM248.895 7.17054C247.714 7.17054 246.752 6.82712 246.01 6.14029C245.269 5.45346 244.898 4.60178 244.898 3.58527C244.898 2.56876 245.269 1.71708 246.01 1.03025C246.752 0.343417 247.714 0 248.895 0C250.076 0 251.038 0.329681 251.78 0.989042C252.522 1.62093 252.893 2.44513 252.893 3.46164C252.893 4.5331 252.522 5.42598 251.78 6.14029C251.066 6.82712 250.104 7.17054 248.895 7.17054Z" fill="#1F2A3E"/>
<path d="M269.079 32.7619C266.551 32.7619 264.326 32.2674 262.403 31.2784C260.507 30.2893 259.038 28.9432 257.994 27.2398C256.95 25.509 256.428 23.5446 256.428 21.3468C256.428 19.1214 256.936 17.1571 257.952 15.4537C258.996 13.7229 260.411 12.3767 262.197 11.4152C263.983 10.4261 266.002 9.93161 268.255 9.93161C270.425 9.93161 272.376 10.3987 274.107 11.3327C275.865 12.2394 277.252 13.5581 278.269 15.2889C279.285 16.9923 279.794 19.039 279.794 21.4292C279.794 21.6765 279.78 21.9649 279.752 22.2946C279.725 22.5968 279.697 22.8853 279.67 23.16H261.661V19.4099H276.291L273.818 20.5226C273.818 19.3687 273.585 18.3659 273.118 17.5142C272.651 16.6626 272.005 16.0032 271.181 15.5362C270.357 15.0416 269.395 14.7944 268.296 14.7944C267.197 14.7944 266.222 15.0416 265.37 15.5362C264.546 16.0032 263.9 16.6763 263.433 17.5555C262.966 18.4071 262.733 19.4236 262.733 20.605V21.594C262.733 22.8029 262.994 23.8743 263.516 24.8084C264.065 25.715 264.821 26.4156 265.782 26.9101C266.771 27.3772 267.925 27.6107 269.244 27.6107C270.425 27.6107 271.455 27.4321 272.335 27.075C273.241 26.7178 274.065 26.1821 274.807 25.4678L278.228 29.1767C277.211 30.3306 275.934 31.2234 274.395 31.8553C272.857 32.4597 271.085 32.7619 269.079 32.7619Z" fill="#1F2A3E"/>
<path d="M291.533 32.7619C289.637 32.7619 287.81 32.5422 286.052 32.1026C284.321 31.6355 282.947 31.0586 281.931 30.3718L284.074 25.7562C285.09 26.3881 286.285 26.9101 287.659 27.3222C289.06 27.7069 290.434 27.8992 291.78 27.8992C293.263 27.8992 294.307 27.7206 294.912 27.3634C295.544 27.0063 295.86 26.5118 295.86 25.8799C295.86 25.3579 295.612 24.9733 295.118 24.726C294.651 24.4513 294.019 24.2452 293.222 24.1078C292.426 23.9705 291.546 23.8331 290.585 23.6957C289.651 23.5584 288.703 23.3798 287.741 23.16C286.78 22.9128 285.901 22.5556 285.104 22.0886C284.307 21.6215 283.662 20.9896 283.167 20.1929C282.7 19.3962 282.466 18.3659 282.466 17.1021C282.466 15.701 282.865 14.4647 283.662 13.3933C284.486 12.3218 285.667 11.4839 287.206 10.8794C288.744 10.2476 290.585 9.93161 292.728 9.93161C294.239 9.93161 295.777 10.0964 297.343 10.4261C298.909 10.7558 300.214 11.2366 301.258 11.8685L299.115 16.4428C298.044 15.8109 296.959 15.3851 295.86 15.1653C294.788 14.918 293.744 14.7944 292.728 14.7944C291.299 14.7944 290.255 14.9867 289.596 15.3713C288.936 15.756 288.607 16.2505 288.607 16.8549C288.607 17.4044 288.84 17.8165 289.307 18.0912C289.802 18.3659 290.447 18.5857 291.244 18.7505C292.041 18.9154 292.906 19.0665 293.84 19.2039C294.802 19.3138 295.764 19.4923 296.725 19.7396C297.687 19.9868 298.552 20.344 299.321 20.8111C300.118 21.2506 300.764 21.8688 301.258 22.6655C301.753 23.4348 302 24.4513 302 25.715C302 27.0887 301.588 28.3113 300.764 29.3827C299.939 30.4267 298.744 31.2509 297.178 31.8553C295.64 32.4597 293.758 32.7619 291.533 32.7619Z" fill="#1F2A3E"/>
<path d="M121.682 55.9685H135.57V61.161H121.682V55.9685ZM122.177 67.837H137.878V73.1943H115.542V44.3473H137.342V49.7046H122.177V67.837Z" fill="#1F2A3E"/>
<path d="M139.693 73.1943L149.624 60.172L149.5 63.716L139.981 51.0233H147.193L153.209 59.3066L150.49 59.389L156.712 51.0233H163.553L153.992 63.5924V60.1308L163.883 73.1943H156.589L150.283 64.3754L152.962 64.7463L146.698 73.1943H139.693Z" fill="#1F2A3E"/>
<path d="M180.108 73.524C178.24 73.524 176.605 73.1119 175.204 72.2877C173.803 71.4635 172.704 70.2135 171.907 68.5376C171.138 66.8343 170.754 64.6913 170.754 62.1088C170.754 59.4989 171.124 57.3559 171.866 55.6801C172.608 54.0042 173.679 52.7542 175.081 51.93C176.482 51.1058 178.158 50.6937 180.108 50.6937C182.196 50.6937 184.064 51.1744 185.713 52.136C187.389 53.0701 188.707 54.3888 189.669 56.0922C190.658 57.7955 191.153 59.8011 191.153 62.1088C191.153 64.4441 190.658 66.4634 189.669 68.1667C188.707 69.8701 187.389 71.1888 185.713 72.1229C184.064 73.057 182.196 73.524 180.108 73.524ZM167.003 81.1891V51.0233H173.144V55.5564L173.02 62.15L173.432 68.7024V81.1891H167.003ZM178.996 68.2491C180.067 68.2491 181.015 68.0019 181.839 67.5073C182.691 67.0128 183.364 66.3123 183.858 65.4056C184.38 64.4715 184.641 63.3726 184.641 62.1088C184.641 60.8176 184.38 59.7187 183.858 58.812C183.364 57.9054 182.691 57.2048 181.839 56.7103C181.015 56.2158 180.067 55.9685 178.996 55.9685C177.924 55.9685 176.963 56.2158 176.111 56.7103C175.259 57.2048 174.586 57.9054 174.092 58.812C173.597 59.7187 173.35 60.8176 173.35 62.1088C173.35 63.3726 173.597 64.4715 174.092 65.4056C174.586 66.3123 175.259 67.0128 176.111 67.5073C176.963 68.0019 177.924 68.2491 178.996 68.2491Z" fill="#1F2A3E"/>
<path d="M206.459 73.524C203.932 73.524 201.706 73.0295 199.783 72.0404C197.887 71.0514 196.418 69.7052 195.374 68.0019C194.33 66.271 193.808 64.3067 193.808 62.1088C193.808 59.8835 194.316 57.9192 195.332 56.2158C196.376 54.485 197.791 53.1388 199.577 52.1772C201.363 51.1882 203.382 50.6937 205.635 50.6937C207.805 50.6937 209.756 51.1607 211.487 52.0948C213.245 53.0014 214.632 54.3201 215.649 56.051C216.665 57.7543 217.174 59.8011 217.174 62.1913C217.174 62.4385 217.16 62.727 217.133 63.0567C217.105 63.3589 217.078 63.6473 217.05 63.9221H199.041V60.172H213.671L211.198 61.2846C211.198 60.1308 210.965 59.128 210.498 58.2763C210.031 57.4246 209.385 56.7653 208.561 56.2982C207.737 55.8037 206.775 55.5564 205.676 55.5564C204.577 55.5564 203.602 55.8037 202.75 56.2982C201.926 56.7653 201.28 57.4384 200.813 58.3175C200.346 59.1692 200.113 60.1857 200.113 61.3671V62.3561C200.113 63.5649 200.374 64.6364 200.896 65.5705C201.445 66.4771 202.201 67.1777 203.162 67.6722C204.151 68.1392 205.305 68.3728 206.624 68.3728C207.805 68.3728 208.836 68.1942 209.715 67.837C210.621 67.4799 211.446 66.9441 212.187 66.2298L215.608 69.9387C214.591 71.0926 213.314 71.9855 211.775 72.6174C210.237 73.2218 208.465 73.524 206.459 73.524Z" fill="#1F2A3E"/>
<path d="M221.454 73.1943V51.0233H227.594V57.2873L226.729 55.474C227.388 53.908 228.446 52.7267 229.902 51.93C231.358 51.1058 233.13 50.6937 235.218 50.6937V56.6279C234.943 56.6004 234.696 56.5867 234.476 56.5867C234.256 56.5592 234.023 56.5455 233.776 56.5455C232.017 56.5455 230.589 57.0537 229.49 58.0703C228.418 59.0593 227.883 60.6115 227.883 62.727V73.1943H221.454Z" fill="#1F2A3E"/>
<path d="M248.871 73.524C246.261 73.524 244.228 72.8646 242.772 71.5459C241.316 70.1997 240.588 68.2079 240.588 65.5705V46.1194H247.017V65.4881C247.017 66.4222 247.264 67.1502 247.759 67.6722C248.253 68.1667 248.926 68.414 249.778 68.414C250.794 68.414 251.66 68.1392 252.374 67.5898L254.105 72.1229C253.446 72.5899 252.649 72.9471 251.715 73.1943C250.808 73.4141 249.86 73.524 248.871 73.524ZM237.168 56.4631V51.5179H252.539V56.4631H237.168Z" fill="#1F2A3E"/>
<path d="M112.026 101.638L118.058 88.2338H120.509L126.56 101.638H123.956L118.766 89.5551H119.762L114.592 101.638H112.026ZM114.802 98.536L115.473 96.5828H122.711L123.381 98.536H114.802Z" fill="#231F20"/>
<path d="M137.195 101.83C135.357 101.83 133.914 101.313 132.867 100.279C131.833 99.2446 131.316 97.7509 131.316 95.7977V88.2338H133.805V95.702C133.805 97.0807 134.099 98.0829 134.686 98.7084C135.286 99.3339 136.129 99.6467 137.214 99.6467C138.299 99.6467 139.135 99.3339 139.723 98.7084C140.31 98.0829 140.603 97.0807 140.603 95.702V88.2338H143.055V95.7977C143.055 97.7509 142.531 99.2446 141.484 100.279C140.45 101.313 139.02 101.83 137.195 101.83Z" fill="#231F20"/>
<path d="M154.143 101.83C153.096 101.83 152.094 101.683 151.137 101.389C150.179 101.083 149.42 100.694 148.858 100.221L149.72 98.2871C150.256 98.7084 150.92 99.0595 151.711 99.3403C152.503 99.6212 153.313 99.7616 154.143 99.7616C154.845 99.7616 155.413 99.685 155.847 99.5318C156.281 99.3786 156.601 99.1744 156.805 98.919C157.009 98.6509 157.111 98.3509 157.111 98.019C157.111 97.6105 156.964 97.285 156.671 97.0424C156.377 96.7871 155.994 96.5892 155.522 96.4488C155.062 96.2956 154.545 96.1552 153.971 96.0275C153.409 95.8998 152.841 95.753 152.267 95.5871C151.705 95.4083 151.188 95.1849 150.715 94.9168C150.256 94.636 149.879 94.2658 149.586 93.8062C149.292 93.3466 149.145 92.7594 149.145 92.0445C149.145 91.3168 149.337 90.653 149.72 90.0529C150.115 89.4402 150.709 88.9551 151.501 88.5976C152.305 88.2274 153.32 88.0423 154.545 88.0423C155.35 88.0423 156.147 88.1444 156.939 88.3487C157.73 88.5529 158.42 88.8465 159.007 89.2295L158.222 91.1636C157.622 90.8062 157.003 90.5444 156.364 90.3785C155.726 90.1998 155.113 90.1104 154.526 90.1104C153.837 90.1104 153.275 90.1934 152.841 90.3593C152.42 90.5253 152.107 90.7423 151.903 91.0104C151.711 91.2785 151.615 91.5849 151.615 91.9296C151.615 92.3381 151.756 92.67 152.037 92.9253C152.33 93.1679 152.707 93.3594 153.167 93.4998C153.639 93.6402 154.162 93.7807 154.737 93.9211C155.311 94.0488 155.879 94.1956 156.441 94.3615C157.016 94.5275 157.533 94.7445 157.992 95.0126C158.464 95.2807 158.841 95.6445 159.122 96.1041C159.416 96.5637 159.562 97.1445 159.562 97.8467C159.562 98.5616 159.365 99.2254 158.969 99.8382C158.586 100.438 157.992 100.923 157.188 101.294C156.384 101.651 155.369 101.83 154.143 101.83Z" fill="#231F20"/>
<path d="M168.01 101.638V90.3402H163.567V88.2338H174.942V90.3402H170.499V101.638H168.01Z" fill="#231F20"/>
<path d="M180.257 101.638V88.2338H185.772C186.959 88.2338 187.974 88.4253 188.817 88.8083C189.672 89.1912 190.329 89.7402 190.789 90.4551C191.249 91.17 191.478 92.0189 191.478 93.0019C191.478 93.9849 191.249 94.8339 190.789 95.5488C190.329 96.2509 189.672 96.7935 188.817 97.1765C187.974 97.5467 186.959 97.7318 185.772 97.7318H181.636L182.746 96.602V101.638H180.257ZM189.027 101.638L185.638 96.7743H188.3L191.708 101.638H189.027ZM182.746 96.8701L181.636 95.6828H185.657C186.755 95.6828 187.578 95.4466 188.127 94.9743C188.689 94.5019 188.97 93.8445 188.97 93.0019C188.97 92.1466 188.689 91.4891 188.127 91.0296C187.578 90.57 186.755 90.3402 185.657 90.3402H181.636L182.746 89.1146V96.8701Z" fill="#231F20"/>
<path d="M195.815 101.638L201.847 88.2338H204.298L210.349 101.638H207.745L202.555 89.5551H203.551L198.381 101.638H195.815ZM198.591 98.536L199.262 96.5828H206.5L207.17 98.536H198.591Z" fill="#231F20"/>
<path d="M215.501 101.638V88.2338H217.99V99.5318H224.999V101.638H215.501Z" fill="#231F20"/>
<path d="M230.411 101.638V88.2338H232.9V101.638H230.411Z" fill="#231F20"/>
<path d="M238.077 101.638L244.109 88.2338H246.56L252.611 101.638H250.007L244.817 89.5551H245.813L240.643 101.638H238.077ZM240.853 98.536L241.524 96.5828H248.762L249.432 98.536H240.853Z" fill="#231F20"/>
</svg>
